<?xml version="1.0" standalone="no"?>
<svg viewBox="0 0 200 200" xmlns="http://www.w3.org/2000/svg">
  <path fill="#0F62FE" d="M39.1,-56.9C51,-45.2,61.1,-34.2,68.8,-20.1C76.4,-6.1,81.5,11,76.4,24.3C71.3,37.5,56.1,46.8,41.6,54.6C27.2,62.3,13.6,68.4,-2.5,71.8C-18.7,75.3,-37.3,76.2,-46.3,66.7C-55.4,57.2,-54.8,37.4,-60.2,19.8C-65.6,2.2,-77,-13.3,-77.4,-29.2C-77.8,-45,-67.1,-61.3,-52.3,-72.1C-37.6,-82.9,-18.8,-88.2,-2.6,-84.6C13.6,-81.1,27.2,-68.6,39.1,-56.9Z" transform="translate(100 100)" />
</svg>
